# xmcd
#
# Track frame offsets:
#	182
#	12447
#	22392
#	33835
#	42197
#	52147
#	62237
#	70530
#	83030
#	92357
#	102345
#	113482
#	124260
#	136310
#	146232
#	156925
#
# Disc length: 2259 seconds
#
# Revision: 2
# Processed by: cddbd v1.5.2PL0 Copyright (c) Steve Scherf et al.
# Submitted via: EZCDAudioConverter 1.2.3.1
#
DISCID=db08d110
DTITLE=Cash Johnny  - Intertape CD 500.063
DYEAR=1999
DGENRE=Country
TTITLE0=I Walk The Line
TTITLE1=Ballad Of A Teenage Queen
TTITLE2=Big River
TTITLE3=Guess Things Happen That Way
TTITLE4=Born To Lose
TTITLE5=Get Rhythm
TTITLE6=Wreck Of The Old 97
TTITLE7=Give My Love To Rose
TTITLE8=Luther Played The Boogie
TTITLE9=Hey Porter
TTITLE10=Mean Eyed Cat
TTITLE11=Train Of Love
TTITLE12=You Are The Nearest Thing To Heaven
TTITLE13=Rock Island Line
TTITLE14=Cold Cold Heart
TTITLE15=Folsom Prison Blues
EXTD=
EXTT0=
EXTT1=
EXTT2=
EXTT3=
EXTT4=
EXTT5=
EXTT6=
EXTT7=
EXTT8=
EXTT9=
EXTT10=
EXTT11=
EXTT12=
EXTT13=
EXTT14=
EXTT15=
PLAYORDER=
